<svg width="669" height="194" viewBox="0 0 669 194" fill="none" xmlns="http://www.w3.org/2000/svg">
<g filter="url(#filter0_d_202_11)">
<path d="M90.9091 140H123.909V46.9091H90.6364C81.2727 46.9091 73.2121 48.7727 66.4545 52.5C59.697 56.197 54.5 61.5151 50.8636 68.4545C47.197 75.3939 45.3636 83.697 45.3636 93.3636C45.3636 103.061 47.197 111.394 50.8636 118.364C54.5 125.333 59.7273 130.682 66.5455 134.409C73.3333 138.136 81.4545 140 90.9091 140ZM104.227 123.136H91.7273C85.9091 123.136 81.0152 122.106 77.0455 120.045C73.0455 117.955 70.0455 114.727 68.0455 110.364C66.0152 105.97 65 100.303 65 93.3636C65 86.4848 66.0152 80.8636 68.0455 76.5C70.0455 72.1364 73.0303 68.9242 77 66.8636C80.9697 64.803 85.8636 63.7727 91.6818 63.7727H104.227V123.136Z" fill="#EC6666"/>
</g>
<g filter="url(#filter1_d_202_11)">
<path d="M167 46.5003L192 46.5L124.126 139.818L108 127.989L167 46.5003Z" fill="white"/>
</g>
<path d="M175.273 140.824C172.489 140.824 170.008 140.341 167.83 139.375C165.652 138.39 163.928 136.941 162.659 135.028C161.409 133.097 160.784 130.691 160.784 127.812C160.784 125.388 161.229 123.352 162.119 121.705C163.009 120.057 164.222 118.731 165.756 117.727C167.29 116.723 169.032 115.966 170.983 115.455C172.953 114.943 175.017 114.583 177.176 114.375C179.714 114.11 181.759 113.864 183.312 113.636C184.866 113.39 185.992 113.03 186.693 112.557C187.394 112.083 187.744 111.383 187.744 110.455V110.284C187.744 108.485 187.176 107.093 186.04 106.108C184.922 105.123 183.331 104.631 181.267 104.631C179.089 104.631 177.356 105.114 176.068 106.08C174.78 107.027 173.928 108.22 173.511 109.659L162.318 108.75C162.886 106.098 164.004 103.807 165.67 101.875C167.337 99.9242 169.487 98.428 172.119 97.3864C174.771 96.3258 177.839 95.7955 181.324 95.7955C183.748 95.7955 186.068 96.0795 188.284 96.6477C190.519 97.2159 192.498 98.0966 194.222 99.2898C195.964 100.483 197.337 102.017 198.341 103.892C199.345 105.748 199.847 107.973 199.847 110.568V140H188.369V133.949H188.028C187.328 135.312 186.39 136.515 185.216 137.557C184.042 138.58 182.631 139.384 180.983 139.972C179.335 140.54 177.432 140.824 175.273 140.824ZM178.739 132.472C180.519 132.472 182.091 132.121 183.455 131.42C184.818 130.701 185.888 129.735 186.665 128.523C187.441 127.311 187.83 125.937 187.83 124.403V119.773C187.451 120.019 186.93 120.246 186.267 120.455C185.623 120.644 184.894 120.824 184.08 120.994C183.265 121.146 182.451 121.288 181.636 121.42C180.822 121.534 180.083 121.638 179.42 121.733C178 121.941 176.759 122.273 175.699 122.727C174.638 123.182 173.814 123.797 173.227 124.574C172.64 125.331 172.347 126.278 172.347 127.415C172.347 129.062 172.943 130.322 174.136 131.193C175.348 132.045 176.883 132.472 178.739 132.472ZM245.543 108.807L234.463 109.489C234.274 108.542 233.866 107.689 233.241 106.932C232.616 106.155 231.793 105.54 230.77 105.085C229.766 104.612 228.563 104.375 227.162 104.375C225.287 104.375 223.705 104.773 222.418 105.568C221.13 106.345 220.486 107.386 220.486 108.693C220.486 109.735 220.902 110.616 221.736 111.335C222.569 112.055 223.999 112.633 226.026 113.068L233.923 114.659C238.166 115.53 241.329 116.932 243.412 118.864C245.495 120.795 246.537 123.333 246.537 126.477C246.537 129.337 245.694 131.847 244.009 134.006C242.342 136.165 240.05 137.85 237.134 139.062C234.236 140.256 230.893 140.852 227.105 140.852C221.329 140.852 216.726 139.65 213.298 137.244C209.889 134.82 207.891 131.525 207.304 127.358L219.207 126.733C219.567 128.494 220.438 129.839 221.821 130.767C223.204 131.676 224.974 132.131 227.134 132.131C229.255 132.131 230.959 131.723 232.247 130.909C233.554 130.076 234.217 129.006 234.236 127.699C234.217 126.6 233.753 125.701 232.844 125C231.935 124.28 230.533 123.731 228.639 123.352L221.082 121.847C216.821 120.994 213.649 119.517 211.565 117.415C209.501 115.312 208.469 112.633 208.469 109.375C208.469 106.572 209.226 104.157 210.741 102.131C212.276 100.104 214.425 98.5417 217.19 97.4432C219.974 96.3447 223.232 95.7955 226.963 95.7955C232.474 95.7955 236.812 96.9602 239.974 99.2898C243.156 101.619 245.012 104.792 245.543 108.807ZM273.874 140.852C269.404 140.852 265.559 139.905 262.339 138.011C259.139 136.098 256.677 133.447 254.953 130.057C253.249 126.667 252.396 122.765 252.396 118.352C252.396 113.883 253.258 109.962 254.982 106.591C256.724 103.201 259.196 100.559 262.396 98.6648C265.597 96.7519 269.404 95.7955 273.817 95.7955C277.624 95.7955 280.957 96.4867 283.817 97.8693C286.677 99.2519 288.94 101.193 290.607 103.693C292.273 106.193 293.192 109.129 293.362 112.5H281.942C281.62 110.322 280.768 108.57 279.385 107.244C278.021 105.9 276.232 105.227 274.016 105.227C272.141 105.227 270.502 105.739 269.101 106.761C267.718 107.765 266.639 109.233 265.862 111.165C265.086 113.097 264.697 115.436 264.697 118.182C264.697 120.966 265.076 123.333 265.834 125.284C266.61 127.235 267.699 128.722 269.101 129.744C270.502 130.767 272.141 131.278 274.016 131.278C275.398 131.278 276.639 130.994 277.737 130.426C278.855 129.858 279.773 129.034 280.493 127.955C281.232 126.856 281.714 125.54 281.942 124.006H293.362C293.173 127.339 292.264 130.275 290.635 132.812C289.025 135.331 286.8 137.301 283.959 138.722C281.118 140.142 277.756 140.852 273.874 140.852ZM320.827 140.852C316.414 140.852 312.598 139.915 309.378 138.04C306.177 136.146 303.705 133.513 301.963 130.142C300.221 126.752 299.349 122.822 299.349 118.352C299.349 113.845 300.221 109.905 301.963 106.534C303.705 103.144 306.177 100.511 309.378 98.6364C312.598 96.7424 316.414 95.7955 320.827 95.7955C325.24 95.7955 329.046 96.7424 332.247 98.6364C335.467 100.511 337.948 103.144 339.69 106.534C341.433 109.905 342.304 113.845 342.304 118.352C342.304 122.822 341.433 126.752 339.69 130.142C337.948 133.513 335.467 136.146 332.247 138.04C329.046 139.915 325.24 140.852 320.827 140.852ZM320.884 131.477C322.891 131.477 324.567 130.909 325.912 129.773C327.257 128.617 328.27 127.045 328.952 125.057C329.652 123.068 330.003 120.805 330.003 118.267C330.003 115.729 329.652 113.466 328.952 111.477C328.27 109.489 327.257 107.917 325.912 106.761C324.567 105.606 322.891 105.028 320.884 105.028C318.857 105.028 317.152 105.606 315.77 106.761C314.406 107.917 313.374 109.489 312.673 111.477C311.991 113.466 311.651 115.729 311.651 118.267C311.651 120.805 311.991 123.068 312.673 125.057C313.374 127.045 314.406 128.617 315.77 129.773C317.152 130.909 318.857 131.477 320.884 131.477ZM362.276 114.773V140H350.173V96.3636H361.707V104.062H362.219C363.185 101.525 364.804 99.517 367.077 98.0398C369.349 96.5436 372.105 95.7955 375.344 95.7955C378.374 95.7955 381.016 96.4583 383.27 97.7841C385.524 99.1098 387.276 101.004 388.526 103.466C389.776 105.909 390.401 108.826 390.401 112.216V140H378.298V114.375C378.317 111.705 377.635 109.621 376.253 108.125C374.87 106.61 372.967 105.852 370.543 105.852C368.914 105.852 367.474 106.203 366.224 106.903C364.993 107.604 364.027 108.627 363.327 109.972C362.645 111.297 362.295 112.898 362.276 114.773ZM419.655 140.852C415.185 140.852 411.34 139.905 408.121 138.011C404.92 136.098 402.458 133.447 400.734 130.057C399.03 126.667 398.178 122.765 398.178 118.352C398.178 113.883 399.039 109.962 400.763 106.591C402.505 103.201 404.977 100.559 408.178 98.6648C411.378 96.7519 415.185 95.7955 419.598 95.7955C423.405 95.7955 426.738 96.4867 429.598 97.8693C432.458 99.2519 434.721 101.193 436.388 103.693C438.054 106.193 438.973 109.129 439.143 112.5H427.723C427.401 110.322 426.549 108.57 425.166 107.244C423.803 105.9 422.013 105.227 419.797 105.227C417.922 105.227 416.284 105.739 414.882 106.761C413.5 107.765 412.42 109.233 411.643 111.165C410.867 113.097 410.479 115.436 410.479 118.182C410.479 120.966 410.857 123.333 411.615 125.284C412.392 127.235 413.481 128.722 414.882 129.744C416.284 130.767 417.922 131.278 419.797 131.278C421.179 131.278 422.42 130.994 423.518 130.426C424.636 129.858 425.554 129.034 426.274 127.955C427.013 126.856 427.496 125.54 427.723 124.006H439.143C438.954 127.339 438.045 130.275 436.416 132.812C434.806 135.331 432.581 137.301 429.74 138.722C426.899 140.142 423.537 140.852 419.655 140.852ZM466.778 140.852C462.29 140.852 458.426 139.943 455.188 138.125C451.968 136.288 449.487 133.693 447.744 130.341C446.002 126.97 445.131 122.983 445.131 118.381C445.131 113.892 446.002 109.953 447.744 106.562C449.487 103.172 451.939 100.53 455.102 98.6364C458.284 96.7424 462.015 95.7955 466.295 95.7955C469.174 95.7955 471.854 96.2595 474.335 97.1875C476.835 98.0966 479.013 99.4697 480.869 101.307C482.744 103.144 484.203 105.455 485.244 108.239C486.286 111.004 486.807 114.242 486.807 117.955V121.278H449.96V113.778H475.415C475.415 112.036 475.036 110.492 474.278 109.148C473.521 107.803 472.47 106.752 471.125 105.994C469.799 105.218 468.256 104.83 466.494 104.83C464.657 104.83 463.028 105.256 461.608 106.108C460.206 106.941 459.108 108.068 458.312 109.489C457.517 110.89 457.11 112.453 457.091 114.176V121.307C457.091 123.466 457.489 125.331 458.284 126.903C459.098 128.475 460.244 129.688 461.722 130.54C463.199 131.392 464.951 131.818 466.977 131.818C468.322 131.818 469.553 131.629 470.67 131.25C471.788 130.871 472.744 130.303 473.54 129.545C474.335 128.788 474.941 127.86 475.358 126.761L486.551 127.5C485.983 130.189 484.818 132.538 483.057 134.545C481.314 136.534 479.061 138.087 476.295 139.205C473.549 140.303 470.377 140.852 466.778 140.852ZM506.807 81.8182V140H494.705V81.8182H506.807ZM528.604 81.8182V140H516.501V81.8182H528.604ZM558.014 140.852C553.601 140.852 549.785 139.915 546.565 138.04C543.365 136.146 540.893 133.513 539.151 130.142C537.408 126.752 536.537 122.822 536.537 118.352C536.537 113.845 537.408 109.905 539.151 106.534C540.893 103.144 543.365 100.511 546.565 98.6364C549.785 96.7424 553.601 95.7955 558.014 95.7955C562.427 95.7955 566.234 96.7424 569.435 98.6364C572.654 100.511 575.135 103.144 576.878 106.534C578.62 109.905 579.491 113.845 579.491 118.352C579.491 122.822 578.62 126.752 576.878 130.142C575.135 133.513 572.654 136.146 569.435 138.04C566.234 139.915 562.427 140.852 558.014 140.852ZM558.071 131.477C560.079 131.477 561.755 130.909 563.099 129.773C564.444 128.617 565.457 127.045 566.139 125.057C566.84 123.068 567.19 120.805 567.19 118.267C567.19 115.729 566.84 113.466 566.139 111.477C565.457 109.489 564.444 107.917 563.099 106.761C561.755 105.606 560.079 105.028 558.071 105.028C556.045 105.028 554.34 105.606 552.957 106.761C551.594 107.917 550.562 109.489 549.861 111.477C549.179 113.466 548.838 115.729 548.838 118.267C548.838 120.805 549.179 123.068 549.861 125.057C550.562 127.045 551.594 128.617 552.957 129.773C554.34 130.909 556.045 131.477 558.071 131.477ZM623.668 108.807L612.588 109.489C612.399 108.542 611.991 107.689 611.366 106.932C610.741 106.155 609.918 105.54 608.895 105.085C607.891 104.612 606.688 104.375 605.287 104.375C603.412 104.375 601.83 104.773 600.543 105.568C599.255 106.345 598.611 107.386 598.611 108.693C598.611 109.735 599.027 110.616 599.861 111.335C600.694 112.055 602.124 112.633 604.151 113.068L612.048 114.659C616.291 115.53 619.454 116.932 621.537 118.864C623.62 120.795 624.662 123.333 624.662 126.477C624.662 129.337 623.819 131.847 622.134 134.006C620.467 136.165 618.175 137.85 615.259 139.062C612.361 140.256 609.018 140.852 605.23 140.852C599.454 140.852 594.851 139.65 591.423 137.244C588.014 134.82 586.016 131.525 585.429 127.358L597.332 126.733C597.692 128.494 598.563 129.839 599.946 130.767C601.329 131.676 603.099 132.131 605.259 132.131C607.38 132.131 609.084 131.723 610.372 130.909C611.679 130.076 612.342 129.006 612.361 127.699C612.342 126.6 611.878 125.701 610.969 125C610.06 124.28 608.658 123.731 606.764 123.352L599.207 121.847C594.946 120.994 591.774 119.517 589.69 117.415C587.626 115.312 586.594 112.633 586.594 109.375C586.594 106.572 587.351 104.157 588.866 102.131C590.401 100.104 592.55 98.5417 595.315 97.4432C598.099 96.3447 601.357 95.7955 605.088 95.7955C610.599 95.7955 614.937 96.9602 618.099 99.2898C621.281 101.619 623.137 104.792 623.668 108.807Z" fill="white"/>
<g filter="url(#filter2_d_202_11)">
<rect x="104" y="47" width="20" height="93" fill="#EC6666"/>
</g>
<defs>
<filter id="filter0_d_202_11" x="0.363525" y="0.90918" width="178.546" height="193.091" filterUnits="userSpaceOnUse" color-interpolation-filters="sRGB">
<feFlood flood-opacity="0" result="BackgroundImageFix"/>
<feColorMatrix in="SourceAlpha" type="matrix" values="0 0 0 0 0 0 0 0 0 0 0 0 0 0 0 0 0 0 127 0" result="hardAlpha"/>
<feOffset dx="5" dy="4"/>
<feGaussianBlur stdDeviation="25"/>
<feComposite in2="hardAlpha" operator="out"/>
<feColorMatrix type="matrix" values="0 0 0 0 0 0 0 0 0 0 0 0 0 0 0 0 0 0 0.25 0"/>
<feBlend mode="normal" in2="BackgroundImageFix" result="effect1_dropShadow_202_11"/>
<feBlend mode="normal" in="SourceGraphic" in2="effect1_dropShadow_202_11" result="shape"/>
</filter>
<filter id="filter1_d_202_11" x="108" y="46.5" width="93.0002" height="101.318" filterUnits="userSpaceOnUse" color-interpolation-filters="sRGB">
<feFlood flood-opacity="0" result="BackgroundImageFix"/>
<feColorMatrix in="SourceAlpha" type="matrix" values="0 0 0 0 0 0 0 0 0 0 0 0 0 0 0 0 0 0 127 0" result="hardAlpha"/>
<feOffset dx="5" dy="4"/>
<feGaussianBlur stdDeviation="2"/>
<feComposite in2="hardAlpha" operator="out"/>
<feColorMatrix type="matrix" values="0 0 0 0 0 0 0 0 0 0 0 0 0 0 0 0 0 0 0.5 0"/>
<feBlend mode="normal" in2="BackgroundImageFix" result="effect1_dropShadow_202_11"/>
<feBlend mode="normal" in="SourceGraphic" in2="effect1_dropShadow_202_11" result="shape"/>
</filter>
<filter id="filter2_d_202_11" x="104" y="43" width="29" height="101" filterUnits="userSpaceOnUse" color-interpolation-filters="sRGB">
<feFlood flood-opacity="0" result="BackgroundImageFix"/>
<feColorMatrix in="SourceAlpha" type="matrix" values="0 0 0 0 0 0 0 0 0 0 0 0 0 0 0 0 0 0 127 0" result="hardAlpha"/>
<feOffset dx="5"/>
<feGaussianBlur stdDeviation="2"/>
<feComposite in2="hardAlpha" operator="out"/>
<feColorMatrix type="matrix" values="0 0 0 0 0 0 0 0 0 0 0 0 0 0 0 0 0 0 0.5 0"/>
<feBlend mode="normal" in2="BackgroundImageFix" result="effect1_dropShadow_202_11"/>
<feBlend mode="normal" in="SourceGraphic" in2="effect1_dropShadow_202_11" result="shape"/>
</filter>
</defs>
</svg>
